<svg width="906" height="672" viewBox="0 0 906 672" fill="none" xmlns="http://www.w3.org/2000/svg">
<path d="M209.791 421.07L134.593 522.192C129.412 529.159 120.335 532 112.107 529.23L26.6936 500.474C13.6383 496.078 8.80179 480.13 17.2167 469.224L372.853 8.29089C376.649 3.37057 382.512 0.48877 388.727 0.48877H574.115C585.188 0.48877 594.165 9.46547 594.165 20.5388V117.231C594.165 128.304 585.104 137.284 574.031 137.221C450.767 136.516 434.126 130.646 387.023 181.583L270.502 339.424L209.791 421.07Z" fill="#484848"/>
<path d="M409.006 651.306L410.154 503.087C410.221 494.422 404.714 486.695 396.502 483.93L252.328 435.391C239.596 431.105 234.599 415.756 242.367 404.796L276.568 356.536C281.686 349.314 290.934 346.303 299.323 349.127L385.408 378.11C398.319 382.456 411.713 372.939 411.855 359.317L413.57 194.814C413.57 184.681 413.57 181.583 440.593 168.542C468.411 155.117 501.485 157.804 520.097 160.985C528.863 162.483 534.723 170.284 534.723 179.177V651.461C534.723 662.535 525.746 671.511 514.673 671.511H429.055C417.921 671.511 408.919 662.44 409.006 651.306Z" fill="#484848"/>
<path d="M554.035 11.8532C557.105 4.81993 564.082 0.444122 571.751 0.713127C613.345 2.17206 661.928 10.7336 698.852 26.0281C739.558 42.8891 776.545 67.6027 807.7 98.7578C838.855 129.913 863.568 166.899 880.429 207.606C897.29 248.312 905.969 291.94 905.969 336C905.969 380.06 897.29 423.689 880.429 464.395C863.568 505.101 838.855 542.088 807.7 573.243C776.544 604.398 739.558 629.111 698.852 645.972C664.079 660.376 616.994 668.808 576.541 670.96C565.483 671.548 556.507 662.535 556.507 651.461L556.507 554.823C556.507 543.749 565.489 534.793 576.53 533.945C600.241 532.125 628.006 527.313 646.524 519.642C670.64 509.653 692.553 495.011 711.011 476.554C729.468 458.096 744.11 436.183 754.099 412.067C764.088 387.951 769.23 362.103 769.23 336C769.23 309.897 764.088 284.049 754.099 259.933C744.11 235.817 729.468 213.904 711.011 195.447C692.553 176.989 670.64 162.347 646.524 152.358C622.408 142.369 580.98 137.227 554.877 137.227C504.444 135.894 539.817 44.4284 554.035 11.8532Z" fill="#484848"/>
</svg>
