<svg width="52" height="39" viewBox="0 0 52 39" fill="none" xmlns="http://www.w3.org/2000/svg">
<path fill-rule="evenodd" clip-rule="evenodd" d="M7.28801 30.3383L11.6034 24.5352L11.6037 24.5348L11.6046 24.5335C11.656 24.4645 13.7461 21.658 15.0879 19.8491C17.563 16.5123 21.3309 11.3941 21.7389 10.8397C21.7644 10.8052 21.7908 10.7736 21.82 10.7422C24.2219 8.15847 25.2588 8.1697 30.5686 8.2272C30.6389 8.22796 30.7099 8.22873 30.7817 8.2295C30.8484 8.23783 30.9181 8.24303 30.9909 8.24495C32.489 8.24495 34.8666 8.54002 36.2506 9.11331C37.6346 9.6866 38.8922 10.5269 39.9515 11.5862C41.0108 12.6455 41.8511 13.9031 42.4244 15.2871C42.9977 16.6711 43.2927 18.1545 43.2927 19.6526C43.2927 21.1507 42.9977 22.6341 42.4244 24.0181C41.8511 25.4022 41.0108 26.6598 39.9515 27.7191C38.8922 28.7784 37.6346 29.6186 36.2506 30.1919C35.4048 30.5422 33.1901 30.7887 31.2535 30.9274C30.5959 30.9745 30.0431 30.4491 30.0431 29.7897V10.8977C30.0431 10.3874 29.7068 9.93961 29.2037 9.85364C28.1356 9.67112 26.2375 9.51688 24.641 10.2873C23.0901 11.0358 23.0901 11.2136 23.0901 11.7951L22.9907 21.1086C22.9828 21.851 22.2843 22.3917 21.5636 22.2134L16.9339 21.068C16.4745 20.9544 15.9923 21.1336 15.7186 21.5197L13.7681 24.272C13.3069 24.9228 13.6316 25.8341 14.4004 26.0466L22.0496 28.161C22.5515 28.2997 22.8977 28.7583 22.8937 29.2791L22.8282 37.736C22.8232 38.375 23.3399 38.8957 23.9789 38.8957H28.8924L28.911 38.8955C29.0944 38.8926 29.2807 38.8892 29.464 38.8827L29.4679 38.8826C32.3619 38.7704 37.2211 38.284 39.2537 37.4421C41.5898 36.4744 43.7125 35.0561 45.5005 33.2681C47.2885 31.4801 48.7069 29.3574 49.6745 27.0213C50.6422 24.6851 51.1402 22.1812 51.1402 19.6526C51.1402 17.124 50.6422 14.6201 49.6745 12.284C48.7069 9.94784 47.2885 7.82517 45.5005 6.03716C43.7125 4.24916 41.5898 2.83083 39.2537 1.86317C39.0384 1.774 38.8373 1.68883 38.6457 1.60766L38.6455 1.60755C36.9811 0.902551 36.0309 0.500062 32.7117 0.414668C32.647 0.403358 32.5804 0.397461 32.5124 0.397461H21.8729C21.5162 0.397461 21.1797 0.562849 20.9618 0.845228L0.551726 27.2984C0.0687927 27.9243 0.346361 28.8396 1.09561 29.0918L5.9975 30.7422C6.46974 30.9011 6.99066 30.7381 7.28801 30.3383Z" fill="#104B64"/>
</svg>
