<svg width="1000" height="1000" viewBox="0 0 1000 1000" fill="none" xmlns="http://www.w3.org/2000/svg">
<path d="M601.035 175.853C604.105 168.82 611.081 164.444 618.751 164.713C660.344 166.172 708.928 174.734 745.852 190.028C786.558 206.889 823.545 231.603 854.7 262.758C885.855 293.913 910.568 330.899 927.429 371.606C944.29 412.312 952.969 455.94 952.969 500C952.969 544.06 944.29 587.689 927.429 628.395C910.568 669.101 885.855 706.088 854.699 737.243C823.544 768.398 786.558 793.111 745.851 809.972C711.079 824.376 663.993 832.808 623.541 834.96C612.483 835.548 603.507 826.535 603.507 815.461L603.507 718.823C603.507 707.749 612.489 698.793 623.53 697.945C647.241 696.125 675.005 691.313 693.524 683.642C717.64 673.653 739.553 659.011 758.01 640.554C776.468 622.096 791.11 600.183 801.099 576.067C811.088 551.951 816.23 526.103 816.23 500C816.23 473.897 811.088 448.049 801.099 423.933C791.11 399.817 776.468 377.904 758.011 359.447C739.553 340.989 717.64 326.347 693.524 316.358C669.408 306.369 627.98 301.227 601.877 301.227C551.444 299.894 586.817 208.428 601.035 175.853Z" fill="#022B3A"/>
<path d="M256.791 585.07L181.593 686.192C176.412 693.159 167.335 696 159.107 693.23L73.6936 664.474C60.6383 660.078 55.8018 644.13 64.2167 633.224L419.853 172.291C423.649 167.371 429.512 164.489 435.727 164.489H621.115C632.188 164.489 641.165 173.465 641.165 184.539V281.231C641.165 292.304 632.104 301.284 621.031 301.221C497.767 300.516 481.126 294.646 434.023 345.583L317.502 503.424L256.791 585.07Z" fill="#022B3A"/>
<path d="M456.006 815.306L457.154 667.087C457.221 658.422 451.714 650.695 443.502 647.93L299.328 599.391C286.596 595.105 281.599 579.756 289.367 568.796L323.568 520.536C328.686 513.314 337.934 510.303 346.323 513.127L432.408 542.11C445.319 546.456 458.713 536.939 458.855 523.317L460.57 358.814C460.57 348.681 460.57 345.583 487.593 332.542C515.411 319.117 548.485 321.804 567.097 324.985C575.863 326.483 581.723 334.284 581.723 343.177V815.461C581.723 826.535 572.746 835.511 561.673 835.511H476.055C464.921 835.511 455.919 826.44 456.006 815.306Z" fill="#022B3A"/>
</svg>
