<svg width="1000" height="1000" viewBox="0 0 1000 1000" fill="none" xmlns="http://www.w3.org/2000/svg">
<rect width="1000" height="1000" fill="#46A47C"/>
<path d="M257.398 584.858L182.387 685.727C177.219 692.677 168.165 695.511 159.957 692.747L74.7573 664.063C61.7346 659.679 56.9102 643.77 65.3041 632.891L420.053 173.108C423.84 168.2 429.688 165.326 435.887 165.326H620.813C631.859 165.326 640.813 174.28 640.813 185.326V281.776C640.813 292.822 631.775 301.78 620.729 301.717C497.772 301.013 481.173 295.158 434.188 345.968L317.957 503.415L257.398 584.858Z" fill="black"/>
<path d="M456.116 814.519L457.261 666.67C457.328 658.027 451.835 650.319 443.643 647.561L299.829 599.143C287.129 594.867 282.144 579.557 289.892 568.624L324.008 520.485C329.113 513.281 338.339 510.277 346.707 513.095L432.577 542.004C445.456 546.34 458.816 536.846 458.958 523.258L460.668 359.166C460.668 349.058 460.668 345.968 487.624 332.959C515.373 319.568 548.364 322.249 566.93 325.421C575.674 326.915 581.519 334.697 581.519 343.568V814.674C581.519 825.72 572.565 834.674 561.519 834.674H476.115C465.009 834.674 456.03 825.625 456.116 814.519Z" fill="black"/>
<path d="M600.783 176.662C603.845 169.646 610.805 165.281 618.455 165.549C659.945 167.005 708.407 175.545 745.239 190.801C785.843 207.62 822.738 232.272 853.815 263.35C884.892 294.427 909.544 331.321 926.363 371.926C943.182 412.53 951.839 456.05 951.839 500C951.839 543.95 943.182 587.47 926.363 628.074C909.544 668.679 884.892 705.573 853.815 736.651C822.737 767.728 785.843 792.38 745.238 809.199C710.552 823.566 663.585 831.977 623.233 834.124C612.203 834.711 603.249 825.72 603.249 814.674L603.249 718.277C603.249 707.231 612.209 698.297 623.222 697.451C646.874 695.635 674.569 690.835 693.041 683.184C717.097 673.22 738.955 658.615 757.367 640.203C775.779 621.791 790.384 599.933 800.348 575.877C810.312 551.821 815.441 526.038 815.441 500C815.441 473.962 810.312 448.179 800.348 424.123C790.384 400.067 775.779 378.209 757.367 359.797C738.955 341.385 717.098 326.78 693.042 316.816C668.986 306.852 627.661 301.723 601.623 301.723C551.316 300.393 586.601 209.156 600.783 176.662Z" fill="black"/>
</svg>
