<svg width="36" height="38" viewBox="0 0 36 38" fill="none" xmlns="http://www.w3.org/2000/svg">
<rect x="3.30371" y="5.37305" width="32.4141" height="31.6634" rx="2" fill="#0077B5" fill-opacity="0.5"/>
<path d="M27.6428 20.7325V28.6827H23.953V21.6843C23.953 20.8117 23.9503 19.6908 23.6015 18.7892C23.4217 18.3246 23.1409 17.891 22.7007 17.5766C22.2586 17.2608 21.6988 17.0962 21.0163 17.0962C20.3388 17.0962 19.7683 17.2314 19.2991 17.4964C18.8274 17.7628 18.4889 18.1432 18.251 18.5832C17.788 19.4397 17.6982 20.54 17.6982 21.5545V28.6827H14.0084V14.2676H17.5075V15.873V16.373H18.0075H18.0711H18.3749L18.5149 16.1033C19.0633 15.0464 20.4313 13.8855 22.5136 13.8855C24.7588 13.8855 25.9813 14.6291 26.6827 15.7644C27.4177 16.9543 27.6428 18.6666 27.6428 20.7325ZM30.3817 0.996094H3.25307C1.71819 0.996094 0.5 2.28134 0.5 3.82494V31.4683C0.5 33.0119 1.71819 34.2972 3.25307 34.2972H30.3817C31.9146 34.2972 33.1419 33.014 33.1419 31.4683V3.82494C33.1419 2.27927 31.9146 0.996094 30.3817 0.996094ZM10.0702 28.6827H6.37341V14.2676H10.0702V28.6827ZM8.2183 11.1623C7.00055 11.1623 5.99908 10.1494 5.99908 8.8864C5.99908 7.62339 7.00055 6.61053 8.2183 6.61053C9.42983 6.61053 10.4375 7.62424 10.4375 8.8864C10.4375 10.1558 9.43689 11.1623 8.2183 11.1623Z" fill="#0077B5" stroke="white"/>
</svg>
