<svg width="24" height="25" viewBox="0 0 24 25" fill="none" xmlns="http://www.w3.org/2000/svg">
<path d="M22.2857 0H1.70893C0.766071 0 0 0.792969 0 1.76641V22.7336C0 23.707 0.766071 24.5 1.70893 24.5H22.2857C23.2286 24.5 24 23.707 24 22.7336V1.76641C24 0.792969 23.2286 0 22.2857 0ZM7.25357 21H3.69643V9.30781H7.25893V21H7.25357ZM5.475 7.71094C4.33393 7.71094 3.4125 6.76484 3.4125 5.60547C3.4125 4.44609 4.33393 3.5 5.475 3.5C6.61071 3.5 7.5375 4.44609 7.5375 5.60547C7.5375 6.77031 6.61607 7.71094 5.475 7.71094V7.71094ZM20.5875 21H17.0304V15.3125C17.0304 13.9563 17.0036 12.2117 15.1821 12.2117C13.3286 12.2117 13.0446 13.6883 13.0446 15.2141V21H9.4875V9.30781H12.9V10.9047H12.9482C13.425 9.98594 14.5875 9.01797 16.3179 9.01797C19.9179 9.01797 20.5875 11.4406 20.5875 14.5906V21V21Z" fill="#022B3A"/>
</svg>
